<svg xmlns="http://www.w3.org/2000/svg" width="51" height="51" fill="none"><g filter="url(#a)"><rect width="42.531" height="42.531" x="4" y="1" fill="#fff" rx="9"/><rect width="41.531" height="41.531" x="4.5" y="1.5" stroke="#D3CDCD" rx="8.5"/><path fill="#4280EF" d="M38.556 22.59c0-.915-.088-1.86-.236-2.746H25.531v5.227h7.325a6.162 6.162 0 0 1-2.717 4.106l4.371 3.397c2.57-2.393 4.047-5.878 4.047-9.983Z"/><path fill="#34A353" d="M25.531 35.822c3.663 0 6.735-1.21 8.98-3.278l-4.372-3.367c-1.211.827-2.776 1.3-4.608 1.3-3.544 0-6.527-2.393-7.62-5.583l-4.49 3.456a13.544 13.544 0 0 0 12.11 7.472Z"/><path fill="#F6B704" d="M17.911 24.865a8.236 8.236 0 0 1 0-5.199l-4.49-3.485a13.575 13.575 0 0 0 0 12.169l4.49-3.485Z"/><path fill="#E54335" d="M25.531 14.084c1.92-.03 3.81.709 5.199 2.038l3.869-3.899c-2.452-2.303-5.7-3.544-9.068-3.514-5.139 0-9.806 2.894-12.11 7.472l4.49 3.485c1.093-3.219 4.076-5.582 7.62-5.582Z"/></g><defs><filter id="a" width="50.531" height="50.531" x="0" y="0" color-interpolation-filters="sRGB" filterUnits="userSpaceOnUse"><feFlood flood-opacity="0" result="BackgroundImageFix"/><feColorMatrix in="SourceAlpha" result="hardAlpha" values="0 0 0 0 0 0 0 0 0 0 0 0 0 0 0 0 0 0 127 0"/><feOffset dy="3"/><feGaussianBlur stdDeviation="2"/><feComposite in2="hardAlpha" operator="out"/><feColorMatrix values="0 0 0 0 0.804167 0 0 0 0 0.804167 0 0 0 0 0.804167 0 0 0 0.41 0"/><feBlend in2="BackgroundImageFix" result="effect1_dropShadow_327_1975"/><feBlend in="SourceGraphic" in2="effect1_dropShadow_327_1975" result="shape"/></filter></defs></svg>