<svg xmlns="http://www.w3.org/2000/svg" width="51" height="52" fill="none"><g filter="url(#a)"><rect width="42.531" height="42.531" x="4.469" y="1.851" fill="#fff" rx="9"/><rect width="41.531" height="41.531" x="4.969" y="2.351" stroke="#D9D9D9" rx="8.5"/><path fill="#000" d="M24.962 14.676c3.666-.75 6.295-3.773 6.258-7.509-3.666.751-6.295 3.773-6.258 7.51Z"/><path fill="#000" d="M36.276 16.662a6.877 6.877 0 0 0-3.804 6.15c0 3.203 2.038 5.888 5.003 6.656-1.57 4.394-4.322 7.737-6.255 7.737-1.686 0-2.657-.394-3.514-.741l-.003-.002c-.67-.273-1.25-.508-2.116-.508-.866 0-1.445.235-2.114.507h-.002c-.858.349-1.829.744-3.517.744-2.758 0-7.51-6.803-7.51-13.767 0-8.516 6.741-8.762 7.51-8.762 1.22 0 2.092.331 2.933.65.816.31 1.586.603 2.7.603 1.115 0 1.885-.293 2.7-.602.842-.32 1.713-.65 2.934-.65.459 0 3.043.101 5.055 1.985Z"/></g><defs><filter id="a" width="50.531" height="50.531" x=".469" y=".851" color-interpolation-filters="sRGB" filterUnits="userSpaceOnUse"><feFlood flood-opacity="0" result="BackgroundImageFix"/><feColorMatrix in="SourceAlpha" result="hardAlpha" values="0 0 0 0 0 0 0 0 0 0 0 0 0 0 0 0 0 0 127 0"/><feOffset dy="3"/><feGaussianBlur stdDeviation="2"/><feComposite in2="hardAlpha" operator="out"/><feColorMatrix values="0 0 0 0 0.804167 0 0 0 0 0.804167 0 0 0 0 0.804167 0 0 0 0.41 0"/><feBlend in2="BackgroundImageFix" result="effect1_dropShadow_327_1974"/><feBlend in="SourceGraphic" in2="effect1_dropShadow_327_1974" result="shape"/></filter></defs></svg>