<svg width="62" height="59" viewBox="0 0 62 59" fill="none" xmlns="http://www.w3.org/2000/svg">
<path d="M30.4974 48.4167C30.6797 48.002 30.7074 47.6209 30.5815 47.2761C30.4621 46.9265 30.1728 46.5284 29.7121 46.0779C29.3041 45.6842 28.9174 45.2689 28.5539 44.8337C28.2634 44.4798 28.0204 44.0895 27.831 43.6726C27.6659 43.2814 27.5795 42.8615 27.5768 42.4368C27.5775 42.0079 27.6867 41.5457 27.9052 41.0486C28.2815 40.1927 28.8639 39.6109 29.6519 39.3041C30.4387 38.9978 31.3056 38.9987 32.2531 39.3059L32.701 38.287C32.7718 38.1258 32.9039 37.9994 33.068 37.9355C33.2321 37.8716 33.4148 37.8755 33.576 37.9464C33.7373 38.0173 33.8637 38.1493 33.9276 38.3134C33.9915 38.4775 33.9876 38.6602 33.9167 38.8215L33.4592 39.8623C34.3008 40.383 34.837 41.0666 35.0706 41.9121C35.228 42.4783 35.2348 43.0766 35.0892 43.7085C34.9659 44.2474 34.3611 44.4753 33.8558 44.2531L33.4896 44.0922C32.9843 43.87 32.7975 43.2811 32.8427 42.7308C32.8618 42.54 32.845 42.3474 32.7931 42.1628C32.6777 41.7494 32.4104 41.4506 31.9902 41.2658C31.5746 41.0831 31.2009 41.0609 30.8683 41.1987C30.5369 41.3316 30.2809 41.6057 30.0986 42.0204C29.9292 42.4058 29.9049 42.7644 30.0251 43.0947C30.1459 43.4263 30.4541 43.8458 30.9498 44.3532C31.4516 44.8643 31.8491 45.3143 32.1433 45.7036C32.4399 46.0875 32.6615 46.4754 32.8103 46.8675C32.9607 47.2536 33.0301 47.6522 33.0183 48.0643C33.0085 48.4718 32.9019 48.9056 32.6995 49.3661C32.3208 50.2275 31.7451 50.809 30.972 51.1093C30.1993 51.4108 29.3204 51.4024 28.3361 51.0845L27.9369 51.9926C27.8665 52.1529 27.7352 52.2786 27.5721 52.3421C27.409 52.4056 27.2273 52.4017 27.0671 52.3312C26.9069 52.2608 26.7812 52.1296 26.7177 51.9665C26.6542 51.8033 26.6581 51.6217 26.7285 51.4614L27.1245 50.5606C26.1354 49.9926 25.4912 49.2714 25.1918 48.3969C24.9921 47.7925 24.9688 47.1498 25.1218 46.4688C25.2447 45.9307 25.8499 45.702 26.3552 45.9241L26.7214 46.0851C27.2268 46.3072 27.415 46.8979 27.381 47.4498C27.3667 47.6686 27.3908 47.8747 27.45 48.0657C27.5992 48.5114 27.9421 48.8522 28.4785 49.088C28.9244 49.284 29.3279 49.3227 29.6883 49.2036C30.0511 49.0791 30.3215 48.8167 30.4974 48.4167Z" fill="#AED9D0" stroke="#6A6A6A"/>
<rect x="19.5724" y="0.658936" width="34" height="47" transform="rotate(23.7292 19.5724 0.658936)" stroke="#676767" stroke-opacity="0.78"/>
<rect x="40" y="18" width="22" height="10" fill="#AED9D0"/>
<path d="M20.2009 17.8667L37.1369 25.3114" stroke="#6A6A6A"/>
<path d="M18.189 22.4438L35.1249 29.8885" stroke="#6A6A6A"/>
<path d="M16.1768 27.0212L33.1127 34.4659" stroke="#6A6A6A"/>
</svg>
