<svg width="300" height="100" viewBox="0 0 300 100" fill="none" xmlns="http://www.w3.org/2000/svg">
<path d="M25.48 81.56C24.1467 81.56 23.1067 81.1867 22.36 80.44C21.6667 79.6933 21.32 78.6533 21.32 77.32V31.56H4.36C3.24 31.56 2.36 31.2667 1.72 30.68C1.08 30.04 0.76 29.16 0.76 28.04C0.76 26.92 1.08 26.0667 1.72 25.48C2.36 24.8933 3.24 24.6 4.36 24.6H46.52C47.6933 24.6 48.6 24.8933 49.24 25.48C49.88 26.0667 50.2 26.92 50.2 28.04C50.2 29.16 49.88 30.04 49.24 30.68C48.6 31.2667 47.6933 31.56 46.52 31.56H29.56V77.32C29.56 78.6533 29.2133 79.6933 28.52 80.44C27.88 81.1867 26.8667 81.56 25.48 81.56ZM61.8944 81.72C59.1744 81.72 56.721 81.1867 54.5344 80.12C52.401 79.0533 50.721 77.6133 49.4944 75.8C48.2677 73.9867 47.6544 71.9333 47.6544 69.64C47.6544 66.76 48.3744 64.4933 49.8144 62.84C51.3077 61.1333 53.7344 59.9333 57.0944 59.24C60.5077 58.4933 65.0944 58.12 70.8544 58.12H74.6144V63.08H70.9344C67.0944 63.08 64.0544 63.2667 61.8144 63.64C59.5744 64.0133 57.9744 64.6533 57.0144 65.56C56.1077 66.4133 55.6544 67.6133 55.6544 69.16C55.6544 71.1867 56.3477 72.84 57.7344 74.12C59.121 75.3467 61.041 75.96 63.4944 75.96C65.4677 75.96 67.201 75.5067 68.6944 74.6C70.1877 73.64 71.361 72.36 72.2144 70.76C73.121 69.16 73.5744 67.32 73.5744 65.24V56.04C73.5744 53 72.9344 50.8133 71.6544 49.48C70.3744 48.1467 68.2677 47.48 65.3344 47.48C63.6277 47.48 61.841 47.6933 59.9744 48.12C58.161 48.5467 56.2677 49.2667 54.2944 50.28C53.3877 50.7067 52.6144 50.84 51.9744 50.68C51.3344 50.52 50.8277 50.1733 50.4544 49.64C50.081 49.0533 49.8677 48.44 49.8144 47.8C49.8144 47.1067 49.9744 46.44 50.2944 45.8C50.6677 45.16 51.281 44.68 52.1344 44.36C54.481 43.24 56.801 42.44 59.0944 41.96C61.3877 41.48 63.5477 41.24 65.5744 41.24C69.1477 41.24 72.081 41.8 74.3744 42.92C76.721 44.04 78.4544 45.7467 79.5744 48.04C80.6944 50.3333 81.2544 53.2933 81.2544 56.92V77.48C81.2544 78.76 80.9344 79.7733 80.2944 80.52C79.6544 81.2133 78.721 81.56 77.4944 81.56C76.321 81.56 75.3877 81.2133 74.6944 80.52C74.001 79.7733 73.6544 78.76 73.6544 77.48V72.28H74.3744C73.9477 74.2533 73.1477 75.96 71.9744 77.4C70.8544 78.7867 69.441 79.8533 67.7344 80.6C66.0277 81.3467 64.081 81.72 61.8944 81.72Z" fill="url(#paint0_linear_431_229)"/>
<path d="M194.36 99.12C191.48 99.12 188.68 98.8267 185.96 98.24C183.293 97.6533 180.867 96.6933 178.68 95.36C177.88 94.9333 177.347 94.4 177.08 93.76C176.813 93.1733 176.733 92.56 176.84 91.92C177 91.28 177.293 90.72 177.72 90.24C178.147 89.76 178.653 89.44 179.24 89.28C179.88 89.12 180.547 89.2267 181.24 89.6C183.587 90.88 185.8 91.7333 187.88 92.16C190.013 92.64 191.987 92.88 193.8 92.88C197.533 92.88 200.333 91.92 202.2 90C204.067 88.1333 205 85.36 205 81.68V73.52H205.72C204.92 76.4533 203.24 78.7733 200.68 80.48C198.12 82.1867 195.16 83.04 191.8 83.04C188.28 83.04 185.213 82.24 182.6 80.64C179.987 78.9867 177.96 76.72 176.52 73.84C175.08 70.9067 174.36 67.4933 174.36 63.6C174.36 60.6667 174.76 58.0267 175.56 55.68C176.413 53.3333 177.587 51.3067 179.08 49.6C180.627 47.8933 182.467 46.5867 184.6 45.68C186.787 44.72 189.187 44.24 191.8 44.24C195.213 44.24 198.173 45.0933 200.68 46.8C203.24 48.5067 204.893 50.8267 205.64 53.76L204.84 55.12V48.48C204.84 47.1467 205.187 46.1333 205.88 45.44C206.627 44.7467 207.613 44.4 208.84 44.4C210.12 44.4 211.107 44.7467 211.8 45.44C212.493 46.1333 212.84 47.1467 212.84 48.48V80.72C212.84 86.8 211.267 91.3867 208.12 94.48C204.973 97.5733 200.387 99.12 194.36 99.12ZM193.72 76.72C196.067 76.72 198.067 76.1867 199.72 75.12C201.373 74.0533 202.653 72.5333 203.56 70.56C204.467 68.5867 204.92 66.2667 204.92 63.6C204.92 59.6 203.907 56.4267 201.88 54.08C199.907 51.7333 197.187 50.56 193.72 50.56C191.427 50.56 189.453 51.0933 187.8 52.16C186.147 53.2267 184.84 54.7467 183.88 56.72C182.973 58.64 182.52 60.9333 182.52 63.6C182.52 67.6533 183.533 70.8533 185.56 73.2C187.587 75.5467 190.307 76.72 193.72 76.72ZM241.14 84.72C237.193 84.72 233.78 83.8933 230.9 82.24C228.073 80.5867 225.86 78.24 224.26 75.2C222.66 72.16 221.86 68.5867 221.86 64.48C221.86 61.3333 222.313 58.5333 223.22 56.08C224.127 53.6267 225.407 51.52 227.06 49.76C228.767 47.9467 230.793 46.5867 233.14 45.68C235.54 44.72 238.207 44.24 241.14 44.24C245.033 44.24 248.393 45.0667 251.22 46.72C254.1 48.3733 256.34 50.72 257.94 53.76C259.54 56.7467 260.34 60.32 260.34 64.48C260.34 67.5733 259.887 70.3733 258.98 72.88C258.073 75.3867 256.767 77.52 255.06 79.28C253.407 81.04 251.38 82.4 248.98 83.36C246.633 84.2667 244.02 84.72 241.14 84.72ZM241.14 78.48C243.327 78.48 245.247 77.9467 246.9 76.88C248.553 75.8133 249.833 74.24 250.74 72.16C251.7 70.08 252.18 67.52 252.18 64.48C252.18 59.8933 251.167 56.4267 249.14 54.08C247.113 51.7333 244.447 50.56 241.14 50.56C238.9 50.56 236.953 51.0933 235.3 52.16C233.647 53.1733 232.34 54.72 231.38 56.8C230.473 58.88 230.02 61.44 230.02 64.48C230.02 69.0133 231.033 72.48 233.06 74.88C235.087 77.28 237.78 78.48 241.14 78.48Z" fill="url(#paint1_linear_431_229)"/>
<path d="M92.72 81.56C91.3867 81.56 90.3467 81.1867 89.6 80.44C88.9067 79.6933 88.56 78.6533 88.56 77.32V28.84C88.56 27.4533 88.9333 26.4133 89.68 25.72C90.4267 24.9733 91.4667 24.6 92.8 24.6H111.92C118 24.6 122.693 26.12 126 29.16C129.307 32.1467 130.96 36.36 130.96 41.8C130.96 47.2933 129.307 51.56 126 54.6C122.693 57.5867 118 59.08 111.92 59.08H96.88V77.32C96.88 78.6533 96.5333 79.6933 95.84 80.44C95.1467 81.1867 94.1067 81.56 92.72 81.56ZM96.88 52.44H110.72C114.72 52.44 117.733 51.56 119.76 49.8C121.84 47.9867 122.88 45.32 122.88 41.8C122.88 38.3333 121.84 35.72 119.76 33.96C117.733 32.1467 114.72 31.24 110.72 31.24H96.88V52.44ZM149.535 81.72C146.815 81.72 144.362 81.1867 142.175 80.12C140.042 79.0533 138.362 77.6133 137.135 75.8C135.908 73.9867 135.295 71.9333 135.295 69.64C135.295 66.76 136.015 64.4933 137.455 62.84C138.948 61.1333 141.375 59.9333 144.735 59.24C148.148 58.4933 152.735 58.12 158.495 58.12H162.255V63.08H158.575C154.735 63.08 151.695 63.2667 149.455 63.64C147.215 64.0133 145.615 64.6533 144.655 65.56C143.748 66.4133 143.295 67.6133 143.295 69.16C143.295 71.1867 143.988 72.84 145.375 74.12C146.762 75.3467 148.682 75.96 151.135 75.96C153.108 75.96 154.842 75.5067 156.335 74.6C157.828 73.64 159.002 72.36 159.855 70.76C160.762 69.16 161.215 67.32 161.215 65.24V56.04C161.215 53 160.575 50.8133 159.295 49.48C158.015 48.1467 155.908 47.48 152.975 47.48C151.268 47.48 149.482 47.6933 147.615 48.12C145.802 48.5467 143.908 49.2667 141.935 50.28C141.028 50.7067 140.255 50.84 139.615 50.68C138.975 50.52 138.468 50.1733 138.095 49.64C137.722 49.0533 137.508 48.44 137.455 47.8C137.455 47.1067 137.615 46.44 137.935 45.8C138.308 45.16 138.922 44.68 139.775 44.36C142.122 43.24 144.442 42.44 146.735 41.96C149.028 41.48 151.188 41.24 153.215 41.24C156.788 41.24 159.722 41.8 162.015 42.92C164.362 44.04 166.095 45.7467 167.215 48.04C168.335 50.3333 168.895 53.2933 168.895 56.92V77.48C168.895 78.76 168.575 79.7733 167.935 80.52C167.295 81.2133 166.362 81.56 165.135 81.56C163.962 81.56 163.028 81.2133 162.335 80.52C161.642 79.7733 161.295 78.76 161.295 77.48V72.28H162.015C161.588 74.2533 160.788 75.96 159.615 77.4C158.495 78.7867 157.082 79.8533 155.375 80.6C153.668 81.3467 151.722 81.72 149.535 81.72Z" fill="url(#paint2_linear_431_229)"/>
<defs>
<linearGradient id="paint0_linear_431_229" x1="54.4211" y1="6" x2="54.4211" y2="38.5" gradientUnits="userSpaceOnUse">
<stop stop-color="#68D1BB"/>
<stop offset="1" stop-color="#C3C3C3"/>
</linearGradient>
<linearGradient id="paint1_linear_431_229" x1="284.695" y1="58" x2="267.42" y2="21.0691" gradientUnits="userSpaceOnUse">
<stop stop-color="#68D1BB"/>
<stop offset="1" stop-color="#C3C3C3"/>
</linearGradient>
<linearGradient id="paint2_linear_431_229" x1="183.675" y1="-0.903522" x2="169.611" y2="74.6116" gradientUnits="userSpaceOnUse">
<stop offset="0.0995698" stop-color="#68D1BB"/>
<stop offset="1" stop-color="#C3C3C3"/>
</linearGradient>
</defs>
</svg>
