<svg width="51" height="52" viewBox="0 0 51 52" fill="none" xmlns="http://www.w3.org/2000/svg">
<g filter="url(#filter0_d_327_1974)">
<rect x="4.46875" y="1.85059" width="42.5311" height="42.5311" rx="9" fill="white"/>
<rect x="4.96875" y="2.35059" width="41.5311" height="41.5311" rx="8.5" stroke="#D9D9D9"/>
<path d="M24.9618 14.6764C28.6285 13.9254 31.2567 10.903 31.2201 7.16699C27.5535 7.91795 24.9252 10.9403 24.9618 14.6764Z" fill="black"/>
<path d="M36.2756 16.6623C34.0223 17.7935 32.4723 20.1188 32.4723 22.8116C32.4723 26.0152 34.5105 28.6998 37.4747 29.4677C35.9045 33.8616 33.1525 37.2045 31.2199 37.2045C29.5341 37.2045 28.5632 36.8109 27.7065 36.4635L27.7028 36.462C27.033 36.1895 26.4535 35.9542 25.5874 35.9542C24.7215 35.9542 24.1422 36.1893 23.4725 36.4611L23.4719 36.4614L23.4708 36.4618C22.6135 36.81 21.6424 37.2045 19.9542 37.2045C17.1957 37.2045 12.4434 30.4016 12.4434 23.4379C12.4434 14.922 19.1853 14.6764 19.9542 14.6764C21.1749 14.6764 22.0458 15.007 22.8875 15.3266C23.7029 15.6364 24.4731 15.9286 25.5874 15.9286C26.7017 15.9286 27.4718 15.6364 28.2872 15.3266C29.1289 15.007 29.9999 14.6764 31.2205 14.6764C31.6797 14.6764 34.2642 14.7785 36.2756 16.6623Z" fill="black"/>
</g>
<defs>
<filter id="filter0_d_327_1974" x="0.46875" y="0.850586" width="50.531" height="50.5311" filterUnits="userSpaceOnUse" color-interpolation-filters="sRGB">
<feFlood flood-opacity="0" result="BackgroundImageFix"/>
<feColorMatrix in="SourceAlpha" type="matrix" values="0 0 0 0 0 0 0 0 0 0 0 0 0 0 0 0 0 0 127 0" result="hardAlpha"/>
<feOffset dy="3"/>
<feGaussianBlur stdDeviation="2"/>
<feComposite in2="hardAlpha" operator="out"/>
<feColorMatrix type="matrix" values="0 0 0 0 0.804167 0 0 0 0 0.804167 0 0 0 0 0.804167 0 0 0 0.41 0"/>
<feBlend mode="normal" in2="BackgroundImageFix" result="effect1_dropShadow_327_1974"/>
<feBlend mode="normal" in="SourceGraphic" in2="effect1_dropShadow_327_1974" result="shape"/>
</filter>
</defs>
</svg>
